<?xml version="1.0" standalone="no"?>
<!DOCTYPE svg PUBLIC "-//W3C//DTD SVG 20010904//EN"
 "http://www.w3.org/TR/2001/REC-SVG-20010904/DTD/svg10.dtd">
<svg version="1.0" xmlns="http://www.w3.org/2000/svg"
 width="500.000000pt" height="500.000000pt" viewBox="0 0 500.000000 500.000000"
 preserveAspectRatio="xMidYMid meet">

<g transform="translate(0.000000,500.000000) scale(0.100000,-0.100000)"
fill="#000000" stroke="none">
<path d="M2405 4029 c-188 -25 -398 -97 -551 -189 -135 -81 -189 -124 -300
-236 -207 -208 -347 -474 -399 -759 -27 -141 -17 -464 18 -600 145 -565 583
-981 1152 -1092 123 -24 384 -24 515 0 519 96 961 477 1125 970 51 154 65 237
72 407 4 132 2 174 -17 284 -52 308 -174 554 -380 770 -125 131 -264 234 -415
306 -214 103 -362 139 -595 145 -85 2 -186 0 -225 -6z m440 -104 c174 -35 350
-108 500 -206 99 -65 303 -268 367 -365 105 -159 173 -320 213 -504 24 -115
30 -355 11 -470 -75 -456 -353 -830 -761 -1025 -207 -98 -345 -129 -590 -128
-197 0 -267 10 -430 64 -207 69 -364 167 -526 328 -275 275 -402 584 -403 976
0 127 5 181 22 262 39 181 109 345 213 500 67 99 252 284 349 350 188 126 423
214 635 237 79 8 322 -3 400 -19z"/>
<path d="M2670 3890 c14 -26 3 -157 -16 -186 -12 -20 -11 -22 18 -28 17 -3 33
-6 37 -6 3 0 6 44 6 99 0 63 4 103 12 113 17 20 7 28 -34 28 -31 0 -33 -2 -23
-20z"/>
<path d="M2460 3845 c-13 -14 -18 -25 -12 -25 6 0 14 -21 17 -47 11 -89 13
-93 43 -93 28 0 52 16 52 33 0 5 -7 4 -15 -3 -23 -19 -37 0 -43 59 -4 47 -3
51 17 51 11 0 21 5 21 10 0 6 -9 10 -20 10 -11 0 -20 7 -20 15 0 22 -13 18
-40 -10z"/>
<path d="M2904 3864 c-6 -2 -9 -17 -6 -33 4 -28 4 -28 -45 -24 -41 4 -51 1
-70 -19 -52 -56 -31 -129 38 -133 19 -1 42 -5 52 -10 26 -11 46 1 40 24 -4 17
11 99 34 184 4 17 -16 22 -43 11z m-40 -80 c33 -32 13 -104 -29 -104 -42 0
-59 56 -29 98 18 26 37 28 58 6z"/>
<path d="M2305 3795 c-36 -35 -35 -96 1 -124 15 -12 37 -21 49 -21 27 0 75 36
75 56 0 10 -5 9 -20 -6 -26 -26 -55 -25 -81 1 -25 25 -23 77 4 93 15 9 22 6
42 -18 12 -16 28 -25 34 -22 30 19 -8 66 -53 66 -15 0 -37 -11 -51 -25z"/>
<path d="M1987 3764 c-15 -15 -7 -45 11 -42 9 2 17 12 17 22 0 20 -16 31 -28
20z"/>
<path d="M2144 3758 c-24 -11 -44 -48 -44 -79 0 -26 52 -79 77 -79 31 0 83 38
83 61 l0 21 -18 -22 c-21 -26 -67 -30 -90 -7 -14 15 -13 17 9 25 13 6 39 16
57 23 l34 14 -22 28 c-22 28 -50 33 -86 15z m51 -22 c18 -13 17 -14 -13 -30
-38 -20 -52 -20 -52 -2 0 15 26 46 39 46 4 0 16 -6 26 -14z"/>
<path d="M2975 3725 c-35 -34 -34 -86 1 -114 28 -22 88 -28 99 -11 4 6 -6 10
-22 10 -45 0 -68 24 -64 67 1 9 15 6 48 -8 25 -11 52 -18 60 -15 23 9 15 53
-13 75 -36 28 -79 27 -109 -4z m95 -15 c8 -16 8 -22 -3 -26 -16 -6 -67 12 -67
24 0 29 55 30 70 2z"/>
<path d="M2015 3690 c-16 -18 -17 -22 -3 -33 29 -23 80 -127 75 -153 -5 -27
13 -33 33 -9 16 20 8 45 -43 138 -43 77 -43 78 -62 57z"/>
<path d="M3188 3655 c32 -14 51 -40 38 -52 -4 -4 -20 1 -35 10 -40 24 -68 21
-87 -8 -15 -23 -15 -27 0 -50 9 -14 30 -28 46 -31 16 -4 31 -12 34 -20 3 -8
15 -14 26 -14 12 0 19 4 15 10 -3 5 6 32 20 59 21 40 24 54 15 70 -14 27 -42
41 -77 41 l-28 -1 33 -14z m3 -64 c20 -16 22 -21 10 -35 -18 -22 -65 -17 -69
7 -4 18 14 47 28 47 4 0 18 -8 31 -19z"/>
<path d="M1872 3607 c-47 -50 -12 -147 53 -147 38 0 85 50 85 90 0 69 -91 107
-138 57z m92 -38 c14 -17 26 -34 26 -39 0 -13 -30 -40 -45 -40 -21 0 -75 50
-75 69 0 48 57 54 94 10z"/>
<path d="M3440 3567 c0 -19 -113 -127 -133 -127 -9 0 -17 -6 -17 -13 0 -14 38
-54 43 -46 2 2 11 17 21 32 l18 29 23 -22 c24 -23 24 -57 -1 -67 -20 -7 -17
-27 6 -48 24 -21 24 -21 36 29 8 34 13 40 38 41 30 1 76 44 76 71 0 24 -19 56
-58 97 -38 39 -52 46 -52 24z m64 -69 c20 -57 -22 -108 -71 -85 -37 17 -36 38
4 79 41 42 54 44 67 6z"/>
<path d="M1762 3518 c-7 -7 -12 -20 -12 -31 0 -11 -4 -15 -11 -11 -12 7 -29
-12 -29 -33 0 -7 6 -13 13 -13 16 0 77 -62 77 -78 0 -17 14 -15 33 6 21 23 21
32 3 32 -19 0 -66 57 -66 80 0 10 10 20 22 23 18 5 19 8 8 21 -15 19 -22 20
-38 4z"/>
<path d="M1588 3414 c-24 -12 -88 -92 -88 -108 0 -3 8 -6 18 -6 25 0 152 -97
152 -117 0 -14 4 -12 25 7 32 30 32 50 1 50 -35 0 -39 14 -16 52 29 47 26 92
-6 117 -31 25 -49 26 -86 5z m55 -33 c33 -13 43 -46 23 -76 -21 -32 -29 -31
-77 3 -44 31 -48 45 -17 66 26 19 38 19 71 7z"/>
<path d="M3500 3317 c-32 -16 -52 -59 -44 -92 7 -27 48 -65 70 -65 21 0 17 10
-11 32 -27 21 -33 59 -11 77 11 9 19 3 42 -34 32 -50 36 -52 58 -29 26 26 20
69 -15 98 -34 29 -52 32 -89 13z m90 -32 c12 -15 5 -55 -10 -55 -9 0 -50 53
-50 64 0 12 48 5 60 -9z"/>
<path d="M2271 3140 c-150 -38 -276 -71 -279 -74 -10 -10 1 -14 139 -49 l135
-34 90 18 c60 13 127 18 209 17 l120 -1 -100 -7 c-114 -8 -141 -13 -244 -42
l-74 -22 7 -68 c6 -62 5 -68 -13 -68 -32 0 -44 -27 -43 -97 1 -71 20 -113 50
-113 10 0 22 -12 29 -30 10 -26 9 -30 -6 -30 -26 0 -61 29 -61 51 0 49 -47 99
-65 69 -11 -17 -24 -11 -39 19 -9 16 -22 31 -31 34 -24 10 -88 -40 -107 -84
-21 -47 -16 -65 25 -85 16 -9 39 -24 50 -34 10 -10 31 -21 45 -25 14 -3 45
-24 69 -45 25 -21 76 -51 114 -66 39 -15 72 -30 74 -34 2 -3 7 -69 11 -146 6
-136 6 -142 -16 -171 -15 -21 -20 -38 -15 -52 6 -21 12 -22 108 -19 l102 3 2
60 c2 75 15 120 34 120 18 0 41 -88 35 -132 -7 -47 9 -54 115 -51 l94 3 -2 33
c0 18 -8 41 -17 51 -18 20 -23 151 -6 151 5 0 7 -13 4 -29 -5 -25 -2 -32 22
-44 16 -8 48 -18 71 -22 61 -10 72 12 72 145 1 147 -22 209 -96 261 -20 14
-21 19 -11 47 9 23 19 32 35 32 28 0 43 28 50 95 8 72 -1 101 -33 109 l-25 7
6 92 c4 51 10 95 14 98 6 6 91 29 107 29 4 0 5 -58 2 -130 -4 -115 -3 -130 11
-130 15 0 16 16 13 133 l-4 134 71 18 c39 11 71 22 71 26 0 11 -566 149 -607
148 -21 -1 -161 -32 -312 -69z m541 -261 l57 -11 12 -57 c21 -104 -13 -265
-62 -288 -53 -26 -146 -43 -229 -43 -95 0 -219 27 -250 55 -39 35 -63 213 -40
297 10 35 12 37 78 47 37 6 85 13 107 15 63 6 264 -3 327 -15z m-545 -248
c-16 -6 -21 10 -25 76 -3 48 -1 68 9 74 11 7 15 -7 19 -69 3 -42 1 -79 -3 -81z
m666 102 c5 -26 3 -54 -9 -110 -2 -13 -11 -23 -18 -23 -11 0 -12 8 -5 38 5 20
9 56 9 80 0 47 15 57 23 15z m-833 -47 c0 -2 -7 -9 -15 -16 -12 -10 -15 -10
-15 4 0 9 7 16 15 16 8 0 15 -2 15 -4z m6 -43 c-10 -10 -19 5 -10 18 6 11 8
11 12 0 2 -7 1 -15 -2 -18z m-58 0 c-4 -22 -22 -20 -26 1 -2 10 3 16 13 16 10
0 15 -7 13 -17z m152 -31 c0 -15 -2 -15 -10 -2 -13 20 -13 33 0 25 6 -3 10
-14 10 -23z m-130 3 c-7 -9 -15 -13 -17 -11 -7 7 7 26 19 26 6 0 6 -6 -2 -15z
m85 -5 c16 -18 16 -20 -4 -46 -12 -15 -21 -35 -21 -46 0 -17 -2 -18 -30 -3
-38 20 -39 50 -3 87 32 33 35 34 58 8z m-135 -9 c0 -6 -4 -13 -10 -16 -5 -3
-10 1 -10 9 0 9 5 16 10 16 6 0 10 -4 10 -9z m25 -32 c-10 -15 -25 -10 -19 6
4 8 10 12 15 9 5 -3 7 -10 4 -15z m184 -23 c19 -14 46 -28 62 -31 28 -6 29 -9
29 -66 0 -34 -4 -59 -10 -59 -20 0 -89 40 -125 72 -30 26 -35 36 -30 57 7 27
23 51 34 51 4 0 22 -11 40 -24z m136 -56 c3 -5 3 -32 -1 -61 -8 -62 -24 -47
-24 24 0 44 11 60 25 37z m475 -49 c0 -33 -4 -62 -9 -65 -9 -6 -20 111 -12
120 14 14 21 -3 21 -55z m-396 29 c14 -5 26 -16 26 -24 0 -26 39 -38 128 -37
76 0 89 2 104 21 9 11 18 25 20 30 2 5 17 12 34 16 l31 6 7 -57 c3 -31 3 -93
0 -137 l-7 -80 -46 -21 c-64 -29 -207 -34 -276 -10 -67 24 -75 42 -75 186 0
126 1 128 54 107z m464 -25 c34 -38 52 -90 52 -149 0 -31 -3 -37 -16 -32 -9 3
-28 6 -44 6 -29 0 -28 -2 -41 80 -5 35 2 130 10 130 5 0 23 -16 39 -35z m-219
-2 c-14 -16 -106 -26 -153 -16 -74 16 -49 28 58 28 80 0 102 -3 95 -12z m161
-149 c0 -20 -26 -41 -37 -30 -3 3 -2 24 2 47 7 40 9 41 21 24 8 -10 14 -29 14
-41z m98 -59 c2 -1 6 -19 9 -39 5 -33 4 -36 -18 -36 -26 0 -99 18 -99 25 0 16
26 55 39 58 14 4 61 -2 69 -8z m-443 -92 c49 -6 50 -9 34 -66 -8 -30 -14 -37
-27 -32 -9 3 -35 9 -58 12 -46 6 -54 18 -54 86 l0 38 30 -16 c16 -8 50 -18 75
-22z m275 -22 l0 -58 -42 -7 c-24 -3 -53 -9 -65 -12 -20 -5 -23 -2 -29 32 -3
22 -6 43 -7 48 -1 5 21 15 48 21 28 6 59 16 70 23 11 6 21 12 23 12 1 0 2 -26
2 -59z m77 23 c-3 -3 -12 -4 -19 -1 -8 3 -5 6 6 6 11 1 17 -2 13 -5z m43 -14
c0 -5 -4 -10 -10 -10 -5 0 -10 5 -10 10 0 6 5 10 10 10 6 0 10 -4 10 -10z m50
-4 c0 -2 -7 -7 -16 -10 -8 -3 -12 -2 -9 4 6 10 25 14 25 6z m-445 -108 c14 -6
25 -19 25 -30 0 -16 -9 -18 -80 -18 -70 0 -80 2 -80 18 0 10 5 23 12 30 15 15
89 16 123 0z m299 -10 c8 -12 13 -25 10 -30 -3 -4 -41 -8 -85 -8 -62 0 -79 3
-79 14 0 25 42 46 92 46 37 0 50 -5 62 -22z"/>
<path d="M2475 2864 c-130 -31 -136 -37 -143 -138 -2 -41 -1 -91 2 -111 6 -32
14 -40 62 -62 116 -53 264 -54 385 -2 61 27 74 59 66 171 -6 89 -17 108 -75
127 -37 13 -260 24 -297 15z m29 -110 c17 -17 21 -70 7 -92 -4 -8 -19 -12 -32
-10 -21 3 -24 9 -27 52 -2 32 1 52 10 57 18 12 24 11 42 -7z m210 10 c12 -5
16 -20 16 -60 0 -53 0 -54 -30 -54 -30 0 -30 1 -30 54 0 34 5 56 13 59 6 3 13
6 14 6 1 1 8 -2 17 -5z m-120 -154 c14 0 28 5 31 10 9 14 27 12 23 -2 -10 -29
-106 -28 -116 1 -3 10 0 11 16 2 11 -6 32 -11 46 -11z"/>
<path d="M2492 2378 c-24 -24 -7 -160 24 -183 22 -16 116 -20 143 -5 23 12 31
30 41 104 14 91 8 96 -103 96 -59 0 -97 -4 -105 -12z m190 -68 c-6 -85 -19
-104 -71 -108 -25 -2 -54 -1 -67 2 -27 7 -44 52 -44 118 l0 49 93 -3 92 -3 -3
-55z"/>
<path d="M3562 3137 c-36 -38 -23 -104 25 -126 36 -16 39 -8 9 22 -32 32 -33
51 -1 82 52 53 118 8 68 -47 -13 -14 -14 -21 -5 -30 20 -20 56 23 48 56 -16
66 -100 90 -144 43z"/>
<path d="M1457 3045 c-10 -9 -17 -32 -17 -51 0 -19 -4 -34 -10 -34 -5 0 -10
-10 -10 -23 0 -19 5 -24 29 -24 16 0 47 -9 70 -20 l42 -21 10 25 c12 33 12 33
-16 33 -14 0 -42 7 -61 15 -30 12 -35 19 -32 42 4 36 38 41 92 13 31 -15 42
-17 48 -7 18 28 8 44 -29 51 -21 3 -52 9 -69 12 -21 4 -36 1 -47 -11z"/>
<path d="M3620 2970 c-30 -30 -26 -76 9 -111 69 -69 172 3 127 89 -8 16 -23
32 -31 36 -34 13 -85 6 -105 -14z m118 -41 c4 -31 -22 -56 -66 -65 -27 -6 -33
-3 -44 21 -11 25 -10 29 16 52 39 33 90 29 94 -8z"/>
<path d="M1410 2840 c-13 -13 -20 -33 -20 -59 0 -32 6 -44 31 -65 38 -33 73
-33 104 -1 27 26 32 60 14 98 -21 47 -94 62 -129 27z m108 -32 c46 -46 -51
-106 -100 -61 -10 9 -18 22 -18 29 0 34 91 59 118 32z"/>
<path d="M3640 2767 c0 -35 1 -37 21 -27 51 28 140 -18 108 -56 -13 -16 -81
-19 -110 -4 -17 10 -19 7 -19 -25 0 -31 3 -35 19 -30 68 21 139 -5 115 -43 -9
-13 -25 -17 -73 -17 -59 0 -61 -1 -61 -26 0 -25 1 -26 58 -21 72 5 102 23 102
62 0 15 -7 36 -16 44 -14 15 -14 17 0 32 21 20 20 53 -1 76 -15 17 -15 18 0
18 20 0 21 4 7 31 -9 15 -15 17 -30 9 -26 -14 -93 -13 -108 2 -9 9 -12 4 -12
-25z"/>
<path d="M1452 2653 c-68 -4 -73 -5 -70 -25 3 -19 10 -21 81 -22 l77 -1 0 28
c0 15 -3 26 -7 25 -5 -1 -41 -4 -81 -5z"/>
<path d="M1314 2636 c-7 -19 3 -36 22 -36 10 0 14 8 12 22 -4 26 -26 36 -34
14z"/>
<path d="M1517 2551 c6 -23 0 -27 -60 -36 -44 -7 -49 -6 -54 14 -3 11 -10 21
-15 21 -5 0 -7 -8 -3 -19 4 -13 0 -20 -17 -24 l-22 -6 24 -26 c27 -28 40 -32
40 -10 0 11 12 15 49 15 33 0 56 6 72 19 21 16 22 22 11 45 -13 30 -33 35 -25
7z"/>
<path d="M3635 2473 c-13 -35 -5 -48 29 -49 60 -1 113 -56 76 -79 -17 -10 -89
5 -106 23 -13 13 -17 13 -25 1 -17 -28 -10 -49 16 -49 14 0 41 -7 60 -14 27
-12 35 -21 35 -40 0 -16 -7 -27 -20 -31 -23 -7 -91 12 -102 29 -6 8 -11 6 -18
-4 -21 -32 -11 -47 33 -54 23 -3 52 -8 64 -12 35 -10 66 30 60 75 -4 30 -1 40
15 50 17 10 19 20 15 52 -3 26 -1 38 6 36 7 -1 12 7 12 18 0 15 -8 20 -35 22
-19 2 -51 11 -72 22 -31 15 -38 16 -43 4z"/>
<path d="M1525 2441 c-3 -6 -25 -16 -48 -22 -55 -14 -67 -25 -67 -60 0 -26 49
-98 50 -72 0 6 -4 15 -10 18 -15 9 -12 51 4 64 11 9 15 5 20 -24 12 -64 88
-86 102 -29 4 14 1 38 -7 52 -7 15 -13 38 -13 51 -1 26 -20 39 -31 22z m25
-70 c13 -25 13 -27 -6 -45 -12 -12 -20 -13 -35 -6 -18 10 -26 50 -12 63 13 14
43 7 53 -12z"/>
<path d="M1570 2259 c0 -5 -25 -21 -55 -34 -57 -26 -64 -35 -41 -54 11 -9 22
-6 51 14 43 29 54 30 80 11 28 -20 13 -42 -50 -74 l-56 -28 21 -19 c14 -13 24
-16 28 -8 4 5 26 20 49 31 59 31 70 87 21 113 -16 9 -18 13 -7 19 10 7 10 11
0 24 -15 18 -41 21 -41 5z"/>
<path d="M3521 2144 c-22 -28 -28 -88 -11 -99 6 -4 10 5 10 20 0 43 17 65 50
65 17 0 30 -2 30 -4 0 -2 -12 -25 -26 -51 -22 -39 -24 -49 -13 -56 42 -27 99
13 99 70 0 73 -95 110 -139 55z m117 -61 c2 -24 -2 -33 -17 -38 -34 -11 -42 3
-24 41 20 41 37 40 41 -3z"/>
<path d="M1660 2086 c0 -8 -36 -40 -80 -71 -44 -31 -80 -60 -80 -65 0 -21 40
-20 61 1 18 18 24 20 27 8 23 -75 134 -77 162 -3 13 32 -6 73 -37 80 -17 5
-21 10 -13 19 7 9 7 15 -2 22 -28 21 -38 24 -38 9z m50 -72 c31 -36 -37 -113
-77 -88 -28 18 -27 44 3 75 31 32 55 37 74 13z"/>
<path d="M3452 2027 c-27 -28 -28 -37 -4 -37 10 0 33 -16 52 -35 28 -29 32
-39 24 -53 -6 -9 -18 -18 -27 -20 -20 -4 -87 45 -87 64 0 22 -16 17 -34 -11
-20 -31 -20 -35 3 -35 10 0 24 -6 30 -14 7 -8 28 -22 47 -31 32 -15 37 -15 60
-1 16 11 24 26 24 45 0 21 5 28 17 27 10 0 19 7 21 17 2 9 -2 17 -8 17 -18 0
-81 52 -89 72 -6 18 -8 17 -29 -5z"/>
<path d="M1780 1925 c0 -10 -16 -35 -35 -56 -19 -22 -35 -46 -35 -54 0 -23 46
-65 71 -65 21 0 21 1 -5 21 -24 19 -34 48 -21 61 3 3 19 -7 35 -23 16 -16 37
-29 49 -29 24 0 51 25 51 49 0 20 -35 61 -53 61 -7 0 -17 10 -22 22 -12 27
-35 35 -35 13z m64 -61 c20 -19 20 -29 0 -48 -29 -29 -80 17 -54 49 16 19 35
19 54 -1z"/>
<path d="M3290 1850 c-11 -11 -20 -27 -20 -35 0 -8 -6 -12 -14 -9 -8 3 -19 -3
-25 -15 -14 -26 -14 -31 3 -31 8 0 43 -31 77 -70 35 -38 66 -70 70 -70 4 0 11
9 14 21 5 15 1 25 -14 35 -26 19 -27 31 -2 39 10 3 24 19 31 35 32 78 -63 157
-120 100z m82 -37 c34 -39 25 -83 -16 -83 -35 0 -79 55 -66 81 13 24 61 25 82
2z"/>
<path d="M1956 1757 c-3 -12 -19 -36 -36 -52 l-31 -30 -18 23 c-14 20 -19 21
-29 9 -17 -20 8 -52 35 -45 15 4 20 1 19 -11 -1 -9 8 -17 22 -19 16 -3 22 2
22 17 0 11 17 38 39 61 38 40 38 41 18 55 -29 20 -34 19 -41 -8z"/>
<path d="M3121 1724 c-18 -14 -31 -35 -31 -47 1 -21 2 -20 21 6 22 29 68 37
87 14 8 -10 0 -19 -34 -41 -48 -30 -55 -49 -25 -66 32 -16 60 -12 86 15 42 41
31 105 -22 133 -32 18 -48 15 -82 -14z m109 -79 c0 -14 -26 -45 -39 -45 -4 0
-15 6 -25 13 -17 13 -16 15 15 35 34 21 49 21 49 -3z"/>
<path d="M2045 1692 c-5 -4 -20 -21 -32 -38 l-21 -31 34 -17 c44 -21 47 -20
33 5 -8 16 -8 28 0 46 10 21 16 24 39 19 60 -15 81 -90 42 -153 -37 -61 -115
-52 -134 15 -10 38 -21 41 -30 10 -10 -39 -7 -44 40 -67 62 -31 108 -24 152
24 56 61 40 150 -34 181 -36 15 -73 18 -89 6z"/>
<path d="M3004 1666 c-17 -13 -17 -15 -2 -21 18 -7 38 -55 38 -92 0 -19 -5
-24 -22 -21 -15 2 -23 -2 -23 -12 0 -21 44 -26 51 -5 4 9 13 13 24 10 9 -3 23
2 31 11 11 13 11 17 -2 25 -19 10 -53 94 -44 109 9 15 -28 12 -51 -4z"/>
</g>
</svg>
